<svg width="50" height="50" viewBox="0 0 50 50" fill="none" xmlns="http://www.w3.org/2000/svg">
<rect x="0.1" y="0.1" width="49.8" height="49.8" rx="24.9" fill="white"/>
<rect x="0.1" y="0.1" width="49.8" height="49.8" rx="24.9" stroke="#D65A00" stroke-width="0.2"/>
<g clip-path="url(#clip0_10581_908)">
<path d="M17.7241 22.2079L25.0002 19.2058V11L17.7241 22.2079Z" fill="#FF596E"/>
<path d="M25 19.2056V25.7438L32.2761 22.2077L25 19.2056Z" fill="#FF596E"/>
<path d="M25.0002 19.2056V25.7438L17.7241 22.2077L25.0002 19.2056Z" fill="#800010"/>
<path d="M32.2761 22.2079L25 19.2058V11L32.2761 22.2079Z" fill="#800010"/>
<path d="M24.9992 28.2677V35.2363L17.5833 24.6631L24.9992 28.2677Z" fill="#FF596E"/>
<path d="M25 28.2677V35.2363L32.4159 24.6631L25 28.2677Z" fill="#800010"/>
<path d="M33.6406 26.2603L35.3206 30.4539L39.0001 24.9868L33.6406 26.2603Z" fill="#800010"/>
<path d="M35.3201 30.4539L38.9995 29.4843V24.9868L35.3201 30.4539Z" fill="#FF596E"/>
<path d="M38.9984 29.4844L33.639 37.4496L29.5679 38.9999L35.319 30.454L38.9984 29.4844Z" fill="#800010"/>
<path d="M11 29.4844L16.3594 37.4496L20.4305 38.9999L14.6794 30.454L11 29.4844Z" fill="#FF596E"/>
<path d="M25 38.9998L16.3599 26.2603L14.6799 30.4539L20.4311 38.9998H25Z" fill="#800010"/>
<path d="M16.3594 26.2603L14.6794 30.4539L11 24.9868L16.3594 26.2603Z" fill="#FF596E"/>
<path d="M14.6794 30.4539L11 29.4843V24.9868L14.6794 30.4539Z" fill="#800010"/>
<path d="M25 38.9998L33.6401 26.2603L35.3201 30.4539L29.569 38.9998H25Z" fill="#FF596E"/>
</g>
<defs>
<clipPath id="clip0_10581_908">
<rect width="28" height="28" fill="white" transform="translate(11 11)"/>
</clipPath>
</defs>
</svg>
