<svg width="50" height="50" viewBox="0 0 50 50" fill="none" xmlns="http://www.w3.org/2000/svg">
<rect x="0.1" y="0.1" width="49.8" height="49.8" rx="24.9" fill="white"/>
<rect x="0.1" y="0.1" width="49.8" height="49.8" rx="24.9" stroke="#D65A00" stroke-width="0.2"/>
<g clip-path="url(#clip0_10581_880)">
<path d="M40.5709 28.6011L40.528 28.6463C40.5079 28.667 40.4876 28.6876 40.4671 28.7081L28.6921 40.4641C26.6409 42.512 23.3153 42.512 21.2641 40.4641L18.0124 37.2178C17.7819 36.9885 17.7814 36.6157 18.0109 36.3855C18.0784 36.3177 18.1614 36.2675 18.2527 36.2389C21.7379 35.1631 24.5699 33.9211 26.7483 32.5133C31.9365 29.1602 36.544 27.8562 40.5709 28.6011ZM38.1023 18.9305C42.4497 20.3005 41.9423 23.4986 42 24.7594C37.2389 22.2629 31.5113 23.1779 24.8169 27.5044C19.8273 30.7291 15.6477 32.0587 12.2782 31.493C8.90865 30.9273 8.15069 26.8122 8 25.7187C11.7025 27.5907 16.6644 26.5163 22.8855 22.4956C28.6827 18.749 33.7549 17.5606 38.1023 18.9305ZM28.6921 9.53593L31.7475 12.5859C31.9776 12.8155 31.9779 13.1884 31.7483 13.4185C31.6664 13.5006 31.5621 13.5567 31.4484 13.5796C27.0253 14.4707 23.488 15.7731 20.8364 17.4868C16.2926 20.4234 12.4205 21.7883 9.22019 21.5816L9.22054 21.5807L21.2641 9.53593C23.3153 7.48802 26.6409 7.48802 28.6921 9.53593Z" fill="url(#paint0_linear_10581_880)"/>
</g>
<defs>
<linearGradient id="paint0_linear_10581_880" x1="25" y1="8" x2="24.6667" y2="65.3333" gradientUnits="userSpaceOnUse">
<stop stop-color="#3068EF"/>
<stop offset="1" stop-color="#1322AC"/>
</linearGradient>
<clipPath id="clip0_10581_880">
<rect width="34" height="34" fill="white" transform="translate(8 8)"/>
</clipPath>
</defs>
</svg>
