<svg width="50" height="50" viewBox="0 0 50 50" fill="none" xmlns="http://www.w3.org/2000/svg">
<path d="M50 0H0V50H50V0Z" fill="white"/>
<path d="M12.5104 22.7773L12.1685 23.2902C8.23694 29.4439 9.09163 37.4781 14.3907 42.6063C17.2967 45.6832 21.3992 47.2216 25.5018 47.2216C25.5018 47.2216 25.5018 47.2216 12.5104 22.7773Z" fill="#00A3FF"/>
<path opacity="0.6" d="M25.5013 30.1278L12.51 22.6064C25.5013 47.2217 25.5013 47.2217 25.5013 47.2217C25.5013 41.9225 25.5013 35.7688 25.5013 30.1278Z" fill="#00A3FF"/>
<path opacity="0.6" d="M38.4921 22.7773L38.834 23.2902C42.7656 29.4439 41.9109 37.4781 36.6118 42.6063C33.5349 45.6832 29.6033 47.2216 25.5007 47.2216C25.5007 47.2216 25.5007 47.2216 38.4921 22.7773Z" fill="#00A3FF"/>
<path opacity="0.2" d="M25.5007 30.1278L38.4921 22.6064C25.5007 47.2217 25.5007 47.2217 25.5007 47.2217C25.5007 41.9225 25.5007 35.7688 25.5007 30.1278Z" fill="#00A3FF"/>
<path opacity="0.2" d="M25.5007 13.5464V26.3668L36.7827 20.0421L25.5007 13.5464Z" fill="#00A3FF"/>
<path opacity="0.6" d="M25.5012 13.5464L14.2192 20.0421L25.5012 26.3668V13.5464Z" fill="#00A3FF"/>
<path d="M25.5012 2.77734L14.2192 20.0422L25.5012 13.5465V2.77734Z" fill="#00A3FF"/>
<path opacity="0.6" d="M25.5007 13.5465L36.7827 20.0422L25.5007 2.77734V13.5465Z" fill="#00A3FF"/>
</svg>
