<?xml version="1.0" encoding="utf-8"?>
<!-- Generator: Adobe Illustrator 25.2.0, SVG Export Plug-In . SVG Version: 6.00 Build 0)  -->
<svg version="1.1" id="Layer_1" xmlns="http://www.w3.org/2000/svg" xmlns:xlink="http://www.w3.org/1999/xlink" x="0px" y="0px"
	 viewBox="0 0 2000 2000" style="enable-background:new 0 0 2000 2000;" xml:space="preserve">
<style type="text/css">
	.st0{fill:#7F2E0E;}
	.st1{fill:#F2BF88;}
	.st2{fill:#F9E7D7;}
	.st3{fill:#E0AB77;}
	.st4{fill:#B8FAF6;}
	.st5{fill:#F0CDC2;}
	.st6{fill:#C9B3F5;}
	.st7{fill:#88AAF1;}
</style>
<rect x="-56.52" y="-77.59" class="st0" width="2112.6" height="2154.69"/>
<g>
	<g>
		<g>
			<path class="st1" d="M1388.1,937.28h38.8v98.16c0,191.41-155.15,346.56-346.54,346.56c-0.44,0-0.87-0.03-1.31-0.03v-12.11
				L1388.1,937.28z"/>
			<path class="st2" d="M715.13,938.38c6.12-0.72,12.35-1.1,18.68-1.1h40.02l305.23,432.57v12.11
				c-95.18-0.35-181.33-39.04-243.76-101.46c-9.42-9.42-18.28-19.38-26.57-29.83c-46.74-58.91-74.72-133.38-74.91-214.38
				c-0.01,0-0.01,0-0.02,0c-34.06,0-61.67,27.61-61.67,61.67c0,31.67,23.87,57.74,54.6,61.25c11.68,33.39,27.99,65.08,48.68,93.96
				c-13.27,3.55-27.2,5.47-41.6,5.47c-88.75,0-160.71-71.94-160.71-160.68C573.1,1015.55,635.18,947.6,715.13,938.38z"/>
			<polygon class="st3" points="867.03,937.28 1079.25,1237.05 1293.42,937.28 1388.1,937.28 1079.06,1369.86 773.82,937.28 			"/>
			<g>
				<polygon class="st4" points="1080.41,825.45 1252.61,903.72 1080.41,1005.51 1080.41,1005.51 1252.61,903.72 1080.41,618 
					1080.41,825.45 				"/>
				<polygon class="st5" points="1080.41,825.45 1080.41,1005.51 1080.41,1005.51 1080.41,1005.51 1080.41,1005.51 1080.41,1005.51 
					1080.41,825.45 1080.41,825.45 1080.41,825.45 1080.41,618 1080.41,618 1080.41,618 1080.41,618 908.21,903.72 908.21,903.72 
									"/>
				<polygon class="st6" points="1080.41,1179.03 1080.41,1179.04 1252.71,936.38 1080.41,1038.11 1080.41,1179.04 				"/>
				<polygon class="st5" points="1080.41,1179.04 1080.41,1038.11 1080.41,1038.11 908.21,936.38 1080.41,1179.03 				"/>
				<polygon class="st6" points="1080.41,825.45 1080.41,825.45 1080.41,1005.51 1080.41,1005.51 1252.61,903.72 				"/>
				<polygon class="st7" points="908.21,903.72 1080.41,825.45 1080.41,1005.51 				"/>
			</g>
		</g>
	</g>
</g>
</svg>
