<svg width="30" height="35" viewBox="0 0 30 35" fill="none" xmlns="http://www.w3.org/2000/svg">
<path d="M16.1791 1.68718C16.8182 2.31247 16.8651 3.35343 16.4553 4.10698C16.4466 4.1236 16.446 4.14043 16.4535 4.15745C17.0783 5.57963 17.6057 6.82249 18.3369 7.85335C19.2497 9.14074 20.187 10.3497 20.9811 11.782C21.1224 12.0374 21.1242 12.2458 21.0921 12.5219C21.0902 12.5413 21.0951 12.5583 21.107 12.573C21.5221 13.0854 22.0151 13.0795 22.6465 13.0261C23.5885 12.9457 24.2458 12.912 24.6183 12.9251C27.0297 13.0082 29.0295 14.6792 29.1626 17.1543C29.2303 18.409 29.0491 19.5735 28.3922 20.6263C27.6906 21.7502 26.7385 22.6217 25.536 23.2408C25.2711 23.3774 25.0052 23.5126 24.7383 23.6464C23.6075 24.2141 23.0783 25.8976 23.3711 27.0603C23.4526 27.3825 23.6956 28.0963 24.0998 29.2015C24.1565 29.3555 24.1796 29.4761 24.1693 29.5632C24.1194 29.9872 23.4655 30.179 23.102 30.2122C23.0928 30.2131 23.0841 30.217 23.0773 30.2233C23.0704 30.2296 23.0658 30.238 23.064 30.2473C22.8888 31.2455 22.3739 32.3125 21.5251 32.9046C21.282 33.074 20.9316 33.2324 20.4738 33.3796C19.24 33.7763 17.9795 33.9928 16.6922 34.0293C14.6117 34.0886 12.6345 33.9509 10.6935 33.2632C9.73189 32.9224 9.05123 32.0833 8.70853 31.1475C8.09262 29.4652 8.31237 27.6677 9.07202 26.0757C9.33632 25.5223 9.64933 24.9095 9.84949 24.397C10.5973 22.4831 10.7303 20.4107 10.3537 18.3953C9.91601 16.0527 8.03322 14.2404 5.78576 13.5676C4.0776 13.0569 2.25302 13.165 0.517534 13.3354C-0.11798 13.3978 -0.127483 13.0629 0.26808 12.7202C1.32529 11.8046 2.71154 11.3533 4.0972 11.206C5.78101 11.0261 7.36326 11.2369 8.83979 12.0593C9.43432 12.3907 9.78475 12.7773 10.2914 13.3242C10.3729 13.412 10.4529 13.4688 10.5313 13.4946C10.5369 13.4963 10.5427 13.4967 10.5485 13.4957C10.5542 13.4947 10.5596 13.4924 10.5641 13.4889C10.5687 13.4854 10.5723 13.4808 10.5747 13.4756C10.577 13.4704 10.5781 13.4647 10.5777 13.459C10.5515 13.0516 10.4991 12.652 10.4203 12.26C10.3745 12.0314 10.5313 11.8194 10.6388 11.6199C11.4258 10.1609 12.5222 8.83373 13.5349 7.36167C13.6002 7.26666 13.6566 7.17125 13.7041 7.07545C14.1801 6.11545 14.6358 5.14575 15.0714 4.16636C15.0793 4.14775 15.0785 4.12974 15.069 4.11232C14.6556 3.35046 14.693 2.31781 15.3499 1.69075C15.3564 1.68467 15.3607 1.67662 15.3621 1.66791C15.3635 1.65919 15.362 1.65029 15.3577 1.64265C15.1767 1.31724 15.1306 0.972035 15.2193 0.607037C15.2906 0.312505 15.6119 -0.179172 15.9528 0.0666666C16.4452 0.421173 16.4386 1.15453 16.172 1.63968C16.1621 1.6571 16.1644 1.67293 16.1791 1.68718ZM28.0501 18.004C27.948 16.5741 27.0553 15.2321 25.6613 14.7683C23.9478 14.1982 21.7734 15.3134 20.5742 16.4916C20.56 16.5054 20.5522 16.5222 20.5511 16.542C20.4984 17.3852 20.4818 18.2293 20.5012 19.0741C20.5493 21.1583 21.1361 23.2961 22.0199 25.1802C22.0298 25.2012 22.0403 25.2016 22.0513 25.1814C22.669 24.0734 23.5766 23.2242 24.6385 22.5532C25.0792 22.2753 25.729 22.001 26.1305 21.7593C26.5411 21.5115 26.9258 21.1383 27.2845 20.6399C27.863 19.8355 28.1182 18.9569 28.0501 18.004Z" fill="#DF5E00"/>
</svg>
